<?xml version="1.0" encoding="UTF-8"?>
<!DOCTYPE svg PUBLIC "-//W3C//DTD SVG 1.1//EN" "http://www.w3.org/Graphics/SVG/1.1/DTD/svg11.dtd">
<svg xmlns="http://www.w3.org/2000/svg" xml:space="preserve" width="5.33333in" height="2.79999in" version="1.1" style="shape-rendering:geometricPrecision; text-rendering:geometricPrecision; image-rendering:optimizeQuality; fill-rule:evenodd; clip-rule:evenodd"
viewBox="0 0 5333 2800"
 xmlns:xlink="http://www.w3.org/1999/xlink">
 <defs>
  <style type="text/css">
   <![CDATA[
    .fil2 {fill:#0090D5}
    .fil0 {fill:white}
    .fil1 {fill:black;fill-rule:nonzero}
   ]]>
  </style>
 </defs>
 <g id="Layer_x0020_1">
  <metadata id="CorelCorpID_0Corel-Layer"/>
  <polygon class="fil0" points="0,0 5333,0 5333,2800 0,2800 "/>
  <g id="_2427294419456">
   <g>
    <path class="fil1" d="M2377 1182c-71,0 -132,24 -173,69l0 -61 -145 0 0 523 152 0 0 -259c0,-96 52,-141 125,-141 67,0 106,39 106,124l0 276 152 0 0 -300c0,-159 -93,-231 -217,-231zm756 8l0 67c-40,-51 -101,-75 -174,-75 -144,0 -261,100 -261,253 0,152 117,253 261,253 69,0 126,-22 166,-66l0 23c0,94 -47,143 -154,143 -67,0 -140,-24 -185,-60l-60 109c61,48 158,72 257,72 188,0 293,-89 293,-284l0 -435 -143 0zm-143 373c-80,0 -138,-51 -138,-128 0,-77 58,-128 138,-128 79,0 137,51 137,128 0,77 -58,128 -137,128zm427 150l152 0 0 -722 -152 0 0 722zm542 8c166,0 287,-112 287,-270 0,-157 -121,-269 -287,-269 -166,0 -288,112 -288,269 0,158 122,270 288,270zm0 -125c-76,0 -134,-54 -134,-145 0,-90 58,-144 134,-144 76,0 133,54 133,144 0,91 -57,145 -133,145z"/>
    <path class="fil2" d="M1544 1463c-48,13 -57,69 -48,98 14,45 3,59 -12,64 -28,9 -39,-23 -31,-52 -39,31 -49,88 -35,139l186 0c13,-42 2,-73 -24,-116 -26,-43 -59,-71 -36,-133zm-180 177c-136,-166 17,-294 2,-357 78,68 -27,166 65,207 -36,-184 139,-217 117,-348 115,105 -7,213 50,319 4,-44 19,-71 50,-95 -21,89 57,142 57,218 0,77 -16,94 -43,128l256 0 -209 -858 -412 0 -209 858 255 0c-28,-36 -42,-71 -43,-128 18,32 39,42 64,56zm76 -329c-46,-122 57,-152 41,-235 75,101 -21,163 -41,235z"/>
   </g>
   <path class="fil1" d="M1125 1915c-7,0 -14,-1 -21,-3 -6,-2 -12,-5 -16,-9l6 -8c4,3 9,6 14,8 5,1 12,2 19,2 6,0 11,-1 15,-3 3,-3 4,-5 4,-9 0,-1 0,-2 0,-4 -1,-1 -2,-2 -4,-3 -2,-2 -4,-3 -7,-4 -3,-1 -8,-2 -13,-3 -10,-2 -17,-5 -22,-8 -5,-4 -8,-9 -8,-14 0,-3 1,-6 2,-9 2,-3 4,-5 6,-7 3,-2 6,-3 10,-5 4,-1 9,-1 14,-1 6,0 12,1 17,3 6,2 10,4 14,7l-6 8c-4,-2 -8,-4 -12,-6 -4,-1 -9,-2 -14,-2 -6,0 -11,1 -14,3 -2,2 -4,5 -4,8 0,3 2,6 6,8 3,1 9,3 17,5 6,1 11,3 16,4 4,2 7,3 9,5 3,2 4,4 5,7 1,2 1,5 1,8 0,3 0,6 -2,8 -1,3 -3,6 -6,8 -3,2 -7,3 -11,5 -4,1 -9,1 -15,1zm144 -1l0 -67 -36 0 0 -10 49 0 0 77 -13 0zm5 -93c-3,0 -6,-1 -8,-3 -2,-2 -3,-4 -3,-8 0,-3 1,-5 3,-7 2,-2 5,-3 8,-3 3,0 5,1 7,3 2,2 3,4 3,7 0,4 -1,6 -3,8 -2,2 -4,3 -7,3zm96 93l0 -77 11 0 1 10 0 0c2,-4 4,-7 7,-9 3,-2 6,-3 11,-3 7,0 12,4 14,13 2,-4 5,-7 8,-10 2,-2 6,-3 10,-3 6,0 10,2 13,6 3,4 4,10 4,18l0 55 -13 0 0 -54c0,-9 -2,-14 -8,-14 -3,0 -5,1 -7,3 -1,2 -3,5 -5,9l0 56 -12 0 0 -54c0,-5 -1,-8 -2,-11 -1,-2 -3,-3 -6,-3 -3,0 -5,1 -7,3 -2,2 -4,5 -6,9l0 56 -13 0zm148 32l0 -109 11 0 1 10 0 0c4,-4 8,-7 13,-9 5,-2 9,-3 14,-3 5,0 10,1 14,3 4,1 7,4 10,8 2,3 4,7 6,12 1,5 2,10 2,16 0,7 -1,12 -3,18 -2,5 -5,9 -8,13 -3,3 -7,6 -11,8 -4,2 -9,2 -13,2 -4,0 -8,0 -12,-2 -4,-2 -8,-4 -11,-7l-1 0 1 14 0 26 -13 0zm34 -41c7,0 12,-3 17,-8 4,-6 6,-13 6,-23 0,-4 0,-8 -1,-11 -1,-4 -2,-7 -4,-9 -2,-3 -4,-5 -7,-6 -2,-2 -6,-2 -9,-2 -4,0 -7,1 -11,3 -4,1 -8,4 -12,8l0 39c4,3 7,5 11,7 4,1 7,2 10,2zm158 10c-8,0 -14,-2 -19,-6 -4,-5 -6,-12 -6,-21l0 -76 -28 0 0 -11 41 0 0 88c0,5 1,10 4,12 3,3 6,4 11,4 5,0 9,-1 14,-4l4 10c-4,1 -7,3 -10,3 -3,1 -7,1 -11,1zm130 0c-5,0 -11,0 -16,-2 -5,-2 -9,-5 -13,-8 -4,-4 -7,-8 -9,-13 -2,-5 -3,-11 -3,-17 0,-6 1,-12 3,-17 2,-5 5,-9 9,-12 3,-4 8,-7 12,-8 5,-2 10,-3 15,-3 6,0 11,1 15,2 4,2 8,5 11,8 3,3 5,7 7,11 1,5 2,10 2,15 0,1 0,3 0,4 0,2 0,3 0,4l-61 0c1,9 4,15 10,19 5,5 12,7 20,7 5,0 9,-1 12,-2 4,-1 8,-3 11,-5l5 8c-4,3 -8,5 -13,7 -5,2 -10,2 -17,2zm-2 -70c-3,0 -6,1 -9,2 -3,1 -5,2 -8,4 -2,2 -4,5 -5,8 -2,3 -3,6 -4,10l49 0c0,-8 -2,-14 -7,-18 -4,-4 -9,-6 -16,-6zm290 70c-6,0 -12,0 -17,-2 -5,-2 -10,-5 -13,-8 -4,-3 -7,-8 -9,-13 -2,-5 -4,-10 -4,-17 0,-6 2,-12 4,-17 2,-5 5,-9 9,-13 4,-3 9,-6 14,-7 5,-2 11,-3 16,-3 7,0 12,1 17,3 4,2 8,5 11,8l-6 8c-3,-2 -7,-4 -10,-6 -3,-2 -7,-2 -11,-2 -5,0 -9,0 -12,2 -4,1 -7,3 -10,6 -2,2 -4,6 -6,9 -1,4 -2,8 -2,12 0,5 1,9 2,12 1,4 3,7 6,10 3,2 6,4 9,6 4,1 8,2 13,2 4,0 9,-1 13,-3 4,-2 7,-4 10,-7l6 8c-4,4 -9,7 -14,9 -5,2 -11,3 -16,3zm135 0c-5,0 -10,0 -15,-2 -4,-2 -8,-5 -12,-8 -3,-3 -6,-8 -8,-13 -2,-5 -3,-10 -3,-17 0,-6 1,-12 3,-17 2,-5 5,-9 8,-13 4,-3 8,-6 12,-7 5,-2 10,-3 15,-3 5,0 10,1 14,3 5,1 9,4 12,7 4,4 6,8 9,13 2,5 3,11 3,17 0,7 -1,12 -3,17 -3,5 -5,10 -9,13 -3,3 -7,6 -12,8 -4,2 -9,2 -14,2zm0 -10c3,0 7,-1 10,-2 3,-2 5,-4 7,-6 3,-3 4,-6 5,-10 2,-3 2,-7 2,-12 0,-4 0,-8 -2,-12 -1,-3 -2,-7 -5,-9 -2,-3 -4,-5 -7,-6 -3,-2 -7,-2 -10,-2 -4,0 -7,0 -10,2 -3,1 -6,3 -8,6 -2,2 -4,6 -5,9 -1,4 -2,8 -2,12 0,5 1,9 2,12 1,4 3,7 5,10 2,2 5,4 8,6 3,1 6,2 10,2zm137 10c-5,0 -9,0 -13,-2 -4,-2 -8,-5 -11,-8 -3,-3 -5,-8 -7,-13 -1,-5 -2,-10 -2,-17 0,-6 1,-12 3,-17 2,-5 5,-9 8,-12 3,-4 7,-6 11,-8 4,-2 8,-3 13,-3 5,0 9,1 12,2 4,2 8,5 11,8l0 0 0 -14 0 -30 13 0 0 113 -11 0 -1 -11 -1 0c-3,4 -7,7 -11,9 -4,2 -9,3 -14,3zm3 -10c8,0 15,-4 22,-12l0 -38c-4,-4 -7,-6 -10,-7 -4,-2 -7,-2 -10,-2 -4,0 -7,0 -10,2 -3,1 -5,3 -7,6 -3,2 -4,6 -6,9 -1,4 -1,8 -1,12 0,9 1,17 5,22 4,5 10,8 17,8zm149 10c-6,0 -11,0 -16,-2 -5,-2 -9,-5 -13,-8 -4,-4 -7,-8 -9,-13 -2,-5 -3,-11 -3,-17 0,-6 1,-12 3,-17 2,-5 5,-9 9,-12 3,-4 7,-7 12,-8 5,-2 10,-3 15,-3 5,0 10,1 15,2 4,2 8,5 11,8 3,3 5,7 7,11 1,5 2,10 2,15 0,1 0,3 0,4 0,2 0,3 -1,4l-60 0c1,9 4,15 9,19 6,5 13,7 21,7 4,0 9,-1 12,-2 4,-1 8,-3 11,-5l5 8c-4,3 -8,5 -13,7 -5,2 -11,2 -17,2zm-2 -70c-3,0 -6,1 -9,2 -3,1 -5,2 -8,4 -2,2 -4,5 -6,8 -1,3 -2,6 -3,10l49 0c0,-8 -3,-14 -7,-18 -4,-4 -9,-6 -16,-6zm951 70c-6,0 -11,0 -16,-2 -5,-2 -9,-5 -13,-8 -4,-4 -7,-8 -9,-13 -2,-5 -3,-11 -3,-17 0,-6 1,-12 3,-17 2,-5 5,-9 9,-12 3,-4 8,-7 12,-8 5,-2 10,-3 15,-3 5,0 10,1 15,2 4,2 8,5 11,8 3,3 5,7 7,11 1,5 2,10 2,15 0,1 0,3 0,4 0,2 0,3 -1,4l-60 0c1,9 4,15 9,19 6,5 13,7 21,7 4,0 9,-1 12,-2 4,-1 8,-3 11,-5l5 8c-4,3 -8,5 -13,7 -5,2 -11,2 -17,2zm-2 -70c-3,0 -6,1 -9,2 -3,1 -5,2 -8,4 -2,2 -4,5 -5,8 -2,3 -3,6 -4,10l49 0c0,-8 -3,-14 -7,-18 -4,-4 -9,-6 -16,-6zm135 70c-5,0 -9,0 -13,-2 -4,-2 -8,-5 -11,-8 -3,-3 -5,-8 -7,-13 -1,-5 -2,-10 -2,-17 0,-6 1,-12 3,-17 2,-5 4,-9 8,-12 3,-4 6,-6 11,-8 4,-2 8,-3 13,-3 4,0 9,1 12,2 4,2 7,5 11,8l0 0 0 -14 0 -30 13 0 0 113 -11 0 -1 -11 -1 0c-3,4 -7,7 -11,9 -4,2 -9,3 -14,3zm3 -10c8,0 15,-4 22,-12l0 -38c-4,-4 -7,-6 -11,-7 -3,-2 -6,-2 -10,-2 -3,0 -6,0 -9,2 -3,1 -5,3 -8,6 -2,2 -4,6 -5,9 -1,4 -2,8 -2,12 0,9 2,17 6,22 4,5 10,8 17,8zm147 9l0 -67 -36 0 0 -10 49 0 0 77 -13 0zm5 -93c-3,0 -6,-1 -8,-3 -2,-2 -3,-4 -3,-8 0,-3 1,-5 3,-7 2,-2 5,-3 8,-3 3,0 5,1 7,3 2,2 3,4 3,7 0,4 -1,6 -3,8 -2,2 -4,3 -7,3zm149 94c-5,0 -10,0 -14,-2 -3,-1 -6,-3 -9,-6 -2,-3 -4,-6 -5,-10 -1,-4 -1,-9 -1,-13l0 -37 -22 0 0 -9 22 -1 2 -25 11 0 0 25 37 0 0 10 -37 0 0 37c0,3 0,6 1,9 0,3 1,5 3,7 1,1 3,3 6,4 2,0 5,1 9,1 4,0 7,0 10,-1 3,-1 6,-2 9,-3l2 10c-3,1 -7,2 -10,3 -4,1 -9,1 -14,1zm128 0c-5,0 -10,0 -15,-2 -4,-2 -8,-5 -12,-8 -3,-3 -6,-8 -8,-13 -2,-5 -3,-10 -3,-17 0,-6 1,-12 3,-17 2,-5 5,-9 8,-13 4,-3 8,-6 12,-7 5,-2 10,-3 15,-3 5,0 10,1 14,3 5,1 9,4 13,7 3,4 6,8 8,13 2,5 3,11 3,17 0,7 -1,12 -3,17 -2,5 -5,10 -8,13 -4,3 -8,6 -13,8 -4,2 -9,2 -14,2zm0 -10c4,0 7,-1 10,-2 3,-2 6,-4 8,-6 2,-3 4,-6 5,-10 1,-3 1,-7 1,-12 0,-4 0,-8 -1,-12 -1,-3 -3,-7 -5,-9 -2,-3 -5,-5 -8,-6 -3,-2 -6,-2 -10,-2 -4,0 -7,0 -10,2 -3,1 -6,3 -8,6 -2,2 -4,6 -5,9 -1,4 -2,8 -2,12 0,5 1,9 2,12 1,4 3,7 5,10 2,2 5,4 8,6 3,1 6,2 10,2zm118 9l0 -77 11 0 1 18 0 0c4,-6 9,-11 15,-15 6,-3 12,-5 20,-5 2,0 5,0 8,1 2,0 4,1 7,2l-3 11c-3,-1 -5,-1 -7,-2 -2,0 -4,0 -7,0 -6,0 -12,1 -17,5 -5,3 -10,9 -15,17l0 45 -13 0z"/>
  </g>
 </g>
</svg>
